<mxfile host="65bd71144e">
    <diagram name="MLP Architecture" id="0">
        <mxGraphModel dx="594" dy="841" grid="1" gridSize="10" guides="1" tooltips="1" connect="1" arrows="1" fold="1" page="1" pageScale="1" pageWidth="850" pageHeight="1100" math="0" shadow="0">
            <root>
                <mxCell id="0"/>
                <mxCell id="1" parent="0"/>
                <mxCell id="in1" value="Input 1" style="ellipse;fillColor=#dae8fc;strokeColor=#6c8ebf;" parent="1" vertex="1">
                    <mxGeometry x="60" y="60" width="60" height="40" as="geometry"/>
                </mxCell>
                <mxCell id="in2" value="Input 2" style="ellipse;fillColor=#dae8fc;strokeColor=#6c8ebf;" parent="1" vertex="1">
                    <mxGeometry x="60" y="120" width="60" height="40" as="geometry"/>
                </mxCell>
                <mxCell id="in3" value="Input 3" style="ellipse;fillColor=#dae8fc;strokeColor=#6c8ebf;" parent="1" vertex="1">
                    <mxGeometry x="60" y="180" width="60" height="40" as="geometry"/>
                </mxCell>
                <mxCell id="in4" value="Input 4" style="ellipse;fillColor=#dae8fc;strokeColor=#6c8ebf;" parent="1" vertex="1">
                    <mxGeometry x="60" y="240" width="60" height="40" as="geometry"/>
                </mxCell>
                <mxCell id="in5" value="Input 5" style="ellipse;fillColor=#dae8fc;strokeColor=#6c8ebf;" parent="1" vertex="1">
                    <mxGeometry x="60" y="300" width="60" height="40" as="geometry"/>
                </mxCell>
                <mxCell id="in6" value="Input 6" style="ellipse;fillColor=#dae8fc;strokeColor=#6c8ebf;" parent="1" vertex="1">
                    <mxGeometry x="60" y="360" width="60" height="40" as="geometry"/>
                </mxCell>
                <mxCell id="h1_1" value="Hidden 1-1" style="ellipse;fillColor=#e1d5e7;strokeColor=#9673a6;" parent="1" vertex="1">
                    <mxGeometry x="220" y="80" width="60" height="40" as="geometry"/>
                </mxCell>
                <mxCell id="h1_2" value="Hidden 1-2" style="ellipse;fillColor=#e1d5e7;strokeColor=#9673a6;" parent="1" vertex="1">
                    <mxGeometry x="220" y="160" width="60" height="40" as="geometry"/>
                </mxCell>
                <mxCell id="h1_3" value="Hidden 1-3" style="ellipse;fillColor=#e1d5e7;strokeColor=#9673a6;" parent="1" vertex="1">
                    <mxGeometry x="220" y="240" width="60" height="40" as="geometry"/>
                </mxCell>
                <mxCell id="h1_4" value="Hidden 1-4" style="ellipse;fillColor=#e1d5e7;strokeColor=#9673a6;" parent="1" vertex="1">
                    <mxGeometry x="220" y="320" width="60" height="40" as="geometry"/>
                </mxCell>
                <mxCell id="h2_1" value="Hidden 2-1" style="ellipse;fillColor=#ffe6cc;strokeColor=#d79b00;" parent="1" vertex="1">
                    <mxGeometry x="380" y="100" width="60" height="40" as="geometry"/>
                </mxCell>
                <mxCell id="h2_2" value="Hidden 2-2" style="ellipse;fillColor=#ffe6cc;strokeColor=#d79b00;" parent="1" vertex="1">
                    <mxGeometry x="380" y="180" width="60" height="40" as="geometry"/>
                </mxCell>
                <mxCell id="h2_3" value="Hidden 2-3" style="ellipse;fillColor=#ffe6cc;strokeColor=#d79b00;" parent="1" vertex="1">
                    <mxGeometry x="380" y="260" width="60" height="40" as="geometry"/>
                </mxCell>
                <mxCell id="h2_4" value="Hidden 2-4" style="ellipse;fillColor=#ffe6cc;strokeColor=#d79b00;" parent="1" vertex="1">
                    <mxGeometry x="380" y="340" width="60" height="40" as="geometry"/>
                </mxCell>
                <mxCell id="out1" value="Output" style="ellipse;fillColor=#d5e8d4;strokeColor=#82b366;" parent="1" vertex="1">
                    <mxGeometry x="540" y="200" width="60" height="40" as="geometry"/>
                </mxCell>
                <mxCell id="e1" style="edgeStyle=elbowEdgeStyle;endArrow=block;" parent="1" source="in1" target="h1_1" edge="1">
                    <mxGeometry relative="1" as="geometry"/>
                </mxCell>
                <mxCell id="e2" style="edgeStyle=elbowEdgeStyle;endArrow=block;" parent="1" source="in1" target="h1_2" edge="1">
                    <mxGeometry relative="1" as="geometry"/>
                </mxCell>
                <mxCell id="e3" style="edgeStyle=elbowEdgeStyle;endArrow=block;" parent="1" source="in1" target="h1_3" edge="1">
                    <mxGeometry relative="1" as="geometry"/>
                </mxCell>
                <mxCell id="e4" style="edgeStyle=elbowEdgeStyle;endArrow=block;" parent="1" target="h1_4" edge="1">
                    <mxGeometry relative="1" as="geometry">
                        <mxPoint x="120" y="80" as="sourcePoint"/>
                    </mxGeometry>
                </mxCell>
                <mxCell id="e5" style="edgeStyle=elbowEdgeStyle;endArrow=block;" parent="1" source="in2" target="h1_1" edge="1">
                    <mxGeometry relative="1" as="geometry"/>
                </mxCell>
                <mxCell id="e6" style="edgeStyle=elbowEdgeStyle;endArrow=block;" parent="1" source="in2" target="h1_2" edge="1">
                    <mxGeometry relative="1" as="geometry"/>
                </mxCell>
                <mxCell id="e7" style="edgeStyle=elbowEdgeStyle;endArrow=block;" parent="1" source="in2" target="h1_3" edge="1">
                    <mxGeometry relative="1" as="geometry"/>
                </mxCell>
                <mxCell id="e8" style="edgeStyle=elbowEdgeStyle;endArrow=block;" parent="1" source="in2" target="h1_4" edge="1">
                    <mxGeometry relative="1" as="geometry"/>
                </mxCell>
                <mxCell id="e9" style="edgeStyle=elbowEdgeStyle;endArrow=block;" parent="1" source="in3" target="h1_1" edge="1">
                    <mxGeometry relative="1" as="geometry"/>
                </mxCell>
                <mxCell id="e10" style="edgeStyle=elbowEdgeStyle;endArrow=block;" parent="1" source="in3" target="h1_2" edge="1">
                    <mxGeometry relative="1" as="geometry"/>
                </mxCell>
                <mxCell id="e11" style="edgeStyle=elbowEdgeStyle;endArrow=block;" parent="1" source="in3" target="h1_3" edge="1">
                    <mxGeometry relative="1" as="geometry"/>
                </mxCell>
                <mxCell id="e12" style="edgeStyle=elbowEdgeStyle;endArrow=block;" parent="1" source="in3" target="h1_4" edge="1">
                    <mxGeometry relative="1" as="geometry"/>
                </mxCell>
                <mxCell id="e13" style="edgeStyle=elbowEdgeStyle;endArrow=block;" parent="1" source="in4" target="h1_1" edge="1">
                    <mxGeometry relative="1" as="geometry"/>
                </mxCell>
                <mxCell id="e14" style="edgeStyle=elbowEdgeStyle;endArrow=block;" parent="1" source="in4" target="h1_2" edge="1">
                    <mxGeometry relative="1" as="geometry"/>
                </mxCell>
                <mxCell id="e15" style="edgeStyle=elbowEdgeStyle;endArrow=block;" parent="1" source="in4" target="h1_3" edge="1">
                    <mxGeometry relative="1" as="geometry"/>
                </mxCell>
                <mxCell id="e16" style="edgeStyle=elbowEdgeStyle;endArrow=block;" parent="1" source="in4" target="h1_4" edge="1">
                    <mxGeometry relative="1" as="geometry"/>
                </mxCell>
                <mxCell id="e17" style="edgeStyle=elbowEdgeStyle;endArrow=block;" parent="1" source="in5" target="h1_1" edge="1">
                    <mxGeometry relative="1" as="geometry"/>
                </mxCell>
                <mxCell id="e18" style="edgeStyle=elbowEdgeStyle;endArrow=block;" parent="1" source="in5" target="h1_2" edge="1">
                    <mxGeometry relative="1" as="geometry"/>
                </mxCell>
                <mxCell id="e19" style="edgeStyle=elbowEdgeStyle;endArrow=block;" parent="1" source="in5" target="h1_3" edge="1">
                    <mxGeometry relative="1" as="geometry"/>
                </mxCell>
                <mxCell id="e20" style="edgeStyle=elbowEdgeStyle;endArrow=block;" parent="1" source="in5" target="h1_4" edge="1">
                    <mxGeometry relative="1" as="geometry"/>
                </mxCell>
                <mxCell id="e21" style="edgeStyle=elbowEdgeStyle;endArrow=block;" parent="1" source="in6" target="h1_1" edge="1">
                    <mxGeometry relative="1" as="geometry"/>
                </mxCell>
                <mxCell id="e22" style="edgeStyle=elbowEdgeStyle;endArrow=block;" parent="1" source="in6" target="h1_2" edge="1">
                    <mxGeometry relative="1" as="geometry"/>
                </mxCell>
                <mxCell id="e23" style="edgeStyle=elbowEdgeStyle;endArrow=block;" parent="1" source="in6" target="h1_3" edge="1">
                    <mxGeometry relative="1" as="geometry"/>
                </mxCell>
                <mxCell id="e24" style="edgeStyle=elbowEdgeStyle;endArrow=block;" parent="1" source="in6" target="h1_4" edge="1">
                    <mxGeometry relative="1" as="geometry"/>
                </mxCell>
                <mxCell id="e25" style="edgeStyle=elbowEdgeStyle;endArrow=block;" parent="1" source="h1_1" target="h2_1" edge="1">
                    <mxGeometry relative="1" as="geometry"/>
                </mxCell>
                <mxCell id="e26" style="edgeStyle=elbowEdgeStyle;endArrow=block;" parent="1" source="h1_1" target="h2_2" edge="1">
                    <mxGeometry relative="1" as="geometry"/>
                </mxCell>
                <mxCell id="e27" style="edgeStyle=elbowEdgeStyle;endArrow=block;" parent="1" source="h1_1" target="h2_3" edge="1">
                    <mxGeometry relative="1" as="geometry"/>
                </mxCell>
                <mxCell id="e28" style="edgeStyle=elbowEdgeStyle;endArrow=block;" parent="1" source="h1_1" target="h2_4" edge="1">
                    <mxGeometry relative="1" as="geometry"/>
                </mxCell>
                <mxCell id="e29" style="edgeStyle=elbowEdgeStyle;endArrow=block;" parent="1" source="h1_2" target="h2_1" edge="1">
                    <mxGeometry relative="1" as="geometry"/>
                </mxCell>
                <mxCell id="e30" style="edgeStyle=elbowEdgeStyle;endArrow=block;" parent="1" source="h1_2" target="h2_2" edge="1">
                    <mxGeometry relative="1" as="geometry"/>
                </mxCell>
                <mxCell id="e31" style="edgeStyle=elbowEdgeStyle;endArrow=block;" parent="1" source="h1_2" target="h2_3" edge="1">
                    <mxGeometry relative="1" as="geometry"/>
                </mxCell>
                <mxCell id="e32" style="edgeStyle=elbowEdgeStyle;endArrow=block;" parent="1" source="h1_2" target="h2_4" edge="1">
                    <mxGeometry relative="1" as="geometry"/>
                </mxCell>
                <mxCell id="e33" style="edgeStyle=elbowEdgeStyle;endArrow=block;" parent="1" source="h1_3" target="h2_1" edge="1">
                    <mxGeometry relative="1" as="geometry"/>
                </mxCell>
                <mxCell id="e34" style="edgeStyle=elbowEdgeStyle;endArrow=block;" parent="1" source="h1_3" target="h2_2" edge="1">
                    <mxGeometry relative="1" as="geometry"/>
                </mxCell>
                <mxCell id="e35" style="edgeStyle=elbowEdgeStyle;endArrow=block;" parent="1" source="h1_3" target="h2_3" edge="1">
                    <mxGeometry relative="1" as="geometry"/>
                </mxCell>
                <mxCell id="e36" style="edgeStyle=elbowEdgeStyle;endArrow=block;" parent="1" source="h1_3" target="h2_4" edge="1">
                    <mxGeometry relative="1" as="geometry"/>
                </mxCell>
                <mxCell id="e37" style="edgeStyle=elbowEdgeStyle;endArrow=block;" parent="1" source="h1_4" target="h2_1" edge="1">
                    <mxGeometry relative="1" as="geometry"/>
                </mxCell>
                <mxCell id="e38" style="edgeStyle=elbowEdgeStyle;endArrow=block;" parent="1" source="h1_4" target="h2_2" edge="1">
                    <mxGeometry relative="1" as="geometry"/>
                </mxCell>
                <mxCell id="e39" style="edgeStyle=elbowEdgeStyle;endArrow=block;" parent="1" source="h1_4" target="h2_3" edge="1">
                    <mxGeometry relative="1" as="geometry"/>
                </mxCell>
                <mxCell id="e40" style="edgeStyle=elbowEdgeStyle;endArrow=block;" parent="1" source="h1_4" target="h2_4" edge="1">
                    <mxGeometry relative="1" as="geometry"/>
                </mxCell>
                <mxCell id="e41" style="edgeStyle=elbowEdgeStyle;endArrow=block;" parent="1" source="h2_1" target="out1" edge="1">
                    <mxGeometry relative="1" as="geometry"/>
                </mxCell>
                <mxCell id="e42" style="edgeStyle=elbowEdgeStyle;endArrow=block;" parent="1" source="h2_2" target="out1" edge="1">
                    <mxGeometry relative="1" as="geometry"/>
                </mxCell>
                <mxCell id="e43" style="edgeStyle=elbowEdgeStyle;endArrow=block;" parent="1" source="h2_3" target="out1" edge="1">
                    <mxGeometry relative="1" as="geometry"/>
                </mxCell>
                <mxCell id="e44" style="edgeStyle=elbowEdgeStyle;endArrow=block;" parent="1" source="h2_4" target="out1" edge="1">
                    <mxGeometry relative="1" as="geometry"/>
                </mxCell>
            </root>
        </mxGraphModel>
    </diagram>
</mxfile>